<?xml version="1.0" standalone="no"?>
<!DOCTYPE svg PUBLIC "-//W3C//DTD SVG 20010904//EN"
 "http://www.w3.org/TR/2001/REC-SVG-20010904/DTD/svg10.dtd">
<svg version="1.0" xmlns="http://www.w3.org/2000/svg"
 width="1024.000000pt" height="1024.000000pt" viewBox="0 0 1024.000000 1024.000000"
 preserveAspectRatio="xMidYMid meet">
<metadata>
Created by potrace 1.11, written by Peter Selinger 2001-2013
</metadata>
<g transform="translate(0.000000,1024.000000) scale(0.100000,-0.100000)"
fill="#000000" stroke="none">
<path d="M5295 8816 c-116 -24 -309 -155 -412 -281 -105 -128 -154 -242 -202
-463 -38 -174 -94 -312 -166 -406 -82 -107 -100 -233 -51 -342 45 -99 127
-161 178 -133 23 13 23 13 -11 20 -113 24 -172 189 -112 312 22 46 119 162
128 153 2 -2 -3 -41 -11 -86 -18 -95 -21 -197 -5 -237 5 -15 20 -39 33 -53 12
-14 30 -53 40 -88 37 -138 136 -286 261 -389 26 -22 38 -43 49 -87 22 -83 39
-270 32 -337 -6 -48 -13 -63 -47 -99 -23 -24 -46 -56 -51 -72 -5 -15 -13 -26
-16 -24 -4 2 -7 -6 -8 -17 -7 -132 -12 -169 -27 -185 -16 -15 -17 -15 -17 8 1
26 22 130 35 165 6 19 6 19 -8 3 -8 -10 -24 -18 -37 -18 -36 0 -200 -85 -264
-137 -52 -42 -68 -65 -128 -178 -47 -90 -82 -174 -113 -275 -25 -80 -52 -165
-60 -190 -44 -135 -82 -311 -130 -605 -20 -123 -35 -180 -86 -315 -34 -91 -95
-262 -135 -380 -106 -313 -98 -299 -202 -355 -46 -25 -61 -40 -89 -90 -37 -67
-41 -86 -15 -62 10 9 35 23 56 32 35 15 39 15 72 -6 19 -12 33 -26 31 -33 -4
-14 -96 -75 -125 -82 -33 -9 -70 3 -77 26 -6 19 -7 19 -33 1 -15 -11 -52 -25
-82 -32 -44 -11 -49 -14 -27 -17 36 -4 35 -28 -3 -47 -39 -20 -70 -19 -70 3 0
11 -3 13 -8 5 -5 -9 -63 -2 -227 27 -263 46 -348 72 -442 133 -78 50 -228 103
-315 112 -29 3 -334 17 -678 30 -344 14 -677 29 -740 35 -63 5 -173 12 -245
15 -116 6 -135 4 -177 -14 -58 -24 -88 -76 -88 -149 0 -73 39 -105 230 -188
164 -71 286 -103 405 -104 33 0 326 16 650 36 661 41 667 41 804 -20 174 -78
244 -96 604 -155 216 -36 352 -63 357 -71 6 -9 9 -9 12 0 2 8 15 10 41 5 33
-6 37 -10 31 -28 -6 -19 -2 -18 27 8 19 17 54 52 78 78 34 37 50 47 70 45 46
-5 37 -37 -37 -124 -79 -92 -159 -149 -198 -141 -23 4 -24 3 -9 -13 21 -23 63
-34 79 -20 13 10 98 4 123 -9 7 -4 -6 -21 -36 -46 -38 -31 -60 -63 -100 -143
-56 -112 -63 -154 -31 -195 18 -22 21 -45 25 -181 3 -96 9 -163 17 -175 6 -10
77 -58 157 -106 l146 -86 65 5 c36 3 121 10 189 16 122 11 157 9 417 -25 26
-4 50 -15 64 -30 15 -16 35 -25 54 -25 17 -1 65 -7 106 -14 68 -12 81 -11 145
6 49 14 87 33 128 65 l58 45 44 -19 c38 -15 46 -23 51 -52 4 -19 21 -62 39
-95 47 -89 71 -161 85 -251 18 -108 33 -149 81 -212 49 -66 127 -113 186 -113
84 0 248 109 295 197 65 119 77 265 44 506 -9 65 -16 126 -16 135 0 10 48 -33
118 -105 96 -99 131 -128 183 -153 101 -48 149 -40 234 38 72 67 95 113 89
182 -7 66 -7 68 -73 202 -31 64 -79 140 -117 188 -57 70 -62 80 -42 80 12 0
33 -11 47 -24 39 -35 157 -61 266 -59 86 2 92 1 105 -22 8 -13 53 -52 100 -87
69 -52 111 -74 222 -116 76 -29 152 -52 169 -52 17 0 44 -9 60 -21 16 -11 55
-30 86 -40 31 -11 77 -31 102 -44 25 -12 82 -33 126 -45 44 -12 100 -30 125
-40 66 -25 195 -41 260 -31 53 8 52 8 -33 8 -49 1 -91 4 -95 8 -4 4 46 5 111
3 64 -2 117 -2 117 1 0 3 38 4 85 3 88 -4 130 10 166 55 8 10 -2 5 -22 -10
-28 -21 -47 -27 -85 -27 l-49 0 65 36 c36 20 94 54 128 77 66 42 69 47 145
203 47 96 67 276 34 312 -9 10 -17 31 -17 47 0 39 -42 104 -89 140 -22 17 -43
38 -46 47 -16 45 -111 108 -356 236 -127 67 -227 83 -404 65 -66 -6 -132 -14
-147 -17 -16 -3 -28 -3 -28 -1 0 12 113 61 185 81 89 25 76 33 -15 9 -61 -16
-139 -50 -205 -90 -22 -13 -49 -24 -60 -23 -11 1 -63 -2 -115 -5 -64 -4 -84
-3 -60 3 19 5 53 13 75 19 34 9 28 9 -34 4 -75 -5 -195 -40 -238 -68 -13 -9
-65 -32 -116 -51 -51 -19 -96 -39 -101 -44 -5 -5 -24 -3 -45 6 -45 19 -214 54
-262 54 -22 0 -47 -8 -64 -22 l-27 -21 -59 21 c-41 15 -66 19 -86 13 -60 -18
-104 -46 -128 -83 -28 -42 -54 -48 -73 -18 -10 17 -10 21 2 26 8 3 50 54 93
112 65 88 83 121 102 187 13 44 47 148 76 230 30 83 59 171 65 197 21 81 -1
281 -59 550 l-51 237 13 108 c13 106 11 139 -17 286 l-5 27 112 0 c111 0 112
0 182 39 39 22 80 50 91 63 32 35 192 531 299 928 30 111 63 209 92 268 24 50
41 97 38 102 -3 6 0 10 7 10 8 0 52 44 98 97 47 53 100 114 118 135 29 33 32
40 21 60 -11 20 -7 26 39 69 80 74 245 131 425 148 53 5 101 12 107 16 17 11
11 41 -12 61 -17 14 -20 15 -9 2 18 -24 7 -36 -42 -42 -173 -20 -233 -30 -315
-52 -116 -30 -149 -45 -207 -96 l-45 -40 -25 30 c-21 25 -232 152 -252 152 -4
0 -80 37 -170 81 -146 73 -163 85 -164 108 -2 24 -2 24 -6 3 -4 -21 -6 -21
-26 -7 -39 28 -54 18 -107 -69 -67 -112 -141 -272 -134 -291 4 -8 2 -15 -4
-15 -13 0 -57 -108 -77 -189 -15 -59 -49 -141 -59 -141 -3 0 -31 16 -63 34
-47 28 -73 36 -134 42 -100 9 -274 -11 -317 -37 -68 -39 -104 -7 -59 53 57 76
111 213 158 404 21 84 26 93 56 110 31 16 36 16 67 2 64 -31 116 -32 179 -4
76 33 158 115 180 180 23 67 21 104 -8 215 -24 88 -25 97 -10 127 8 18 15 49
15 71 1 21 9 63 20 93 11 30 19 74 20 97 0 24 7 61 16 82 11 29 14 57 10 98
-3 32 -5 70 -6 85 0 47 -31 172 -47 190 -9 10 -13 24 -10 32 7 17 -57 143
-136 269 -118 188 -330 314 -516 306 -36 -2 -75 2 -86 8 -35 19 -141 43 -186
42 -24 -1 -71 -6 -104 -13z m-152 -346 c-3 -12 -8 -19 -11 -16 -5 6 5 36 12
36 2 0 2 -9 -1 -20z m-16 -52 c-3 -8 -6 -5 -6 6 -1 11 2 17 5 13 3 -3 4 -12 1
-19z m-10 -50 c-3 -7 -5 -2 -5 12 0 14 2 19 5 13 2 -7 2 -19 0 -25z m-11 -72
c-4 -30 -7 -104 -7 -166 0 -96 -2 -111 -15 -106 -9 3 -17 6 -18 6 -3 0 11 137
25 238 6 45 13 82 16 82 3 0 2 -24 -1 -54z m611 2 c-3 -8 -6 -5 -6 6 -1 11 2
17 5 13 3 -3 4 -12 1 -19z m-17 -115 c-22 -148 -40 -212 -61 -218 -11 -4 -22
-5 -24 -3 -2 2 16 66 40 142 25 76 45 145 45 154 0 8 3 13 6 10 3 -4 0 -42 -6
-85z m-841 30 c-5 -21 -9 -59 -9 -85 0 -39 -4 -50 -27 -66 -16 -11 -37 -35
-47 -54 l-19 -33 24 22 c27 24 79 47 79 34 0 -4 13 -6 29 -3 34 5 102 -24 206
-87 64 -39 70 -41 82 -25 14 20 17 37 6 32 -5 -2 -23 11 -40 30 l-33 34 28 -6
c15 -4 88 -15 162 -26 103 -15 136 -16 142 -7 6 9 8 9 8 0 0 -6 19 -14 42 -18
l43 -8 -45 -17 c-46 -18 -60 -41 -41 -64 8 -9 3 -16 -22 -28 -25 -12 -41 -32
-64 -80 -27 -56 -100 -138 -123 -138 -4 0 -17 9 -30 20 -32 28 -45 25 -70 -15
-12 -19 -30 -40 -40 -45 -24 -13 -70 -13 -70 0 0 6 16 10 35 10 29 0 37 5 46
28 7 17 8 39 2 62 -9 34 -8 36 16 38 26 2 40 16 37 36 -10 54 -22 77 -52 105
-22 21 -40 31 -51 27 -14 -6 -14 -8 1 -25 31 -34 -6 -30 -96 11 -97 43 -159
51 -201 24 -16 -11 -27 -14 -32 -7 -10 17 6 99 32 165 28 68 91 196 97 196 2
0 0 -17 -5 -37z m638 -65 c-3 -8 -6 -5 -6 6 -1 11 2 17 5 13 3 -3 4 -12 1 -19z
m-12 -58 c-4 -17 -9 -30 -11 -27 -2 2 -1 18 2 36 4 17 9 30 11 27 3 -2 2 -19
-2 -36z m-21 -74 c-3 -15 -8 -25 -11 -23 -2 3 -1 17 3 31 3 15 8 25 11 23 2
-3 1 -17 -3 -31z m-599 -246 c-21 -22 -29 -42 -33 -80 l-5 -50 -48 0 c-47 0
-49 1 -49 28 0 67 66 132 134 132 l30 0 -29 -30z m234 -152 c1 -12 -6 -18 -20
-18 -16 0 -19 4 -14 18 4 9 10 28 13 42 l6 25 7 -25 c4 -14 7 -33 8 -42z m489
10 c-15 -22 -23 -47 -23 -76 l0 -43 -35 6 c-77 13 -85 23 -54 71 19 28 91 74
117 74 17 0 16 -3 -5 -32z m90 -36 c2 -7 -3 -12 -12 -12 -9 0 -16 7 -16 16 0
17 22 14 28 -4z m184 -19 c9 -10 24 -34 32 -53 12 -30 12 -38 0 -62 -8 -16
-18 -28 -23 -28 -24 0 -71 24 -67 34 23 54 28 86 18 115 -10 28 -9 30 6 22 10
-5 25 -18 34 -28z m-912 17 c0 -5 -4 -10 -10 -10 -5 0 -10 5 -10 10 0 6 5 10
10 10 6 0 10 -4 10 -10z m-274 -150 c-1 -55 -3 -100 -4 -100 -2 0 -12 10 -23
23 -24 28 -28 133 -5 124 10 -4 17 4 21 24 4 16 8 29 9 29 2 0 3 -45 2 -100z
m814 60 c0 -5 -4 -10 -10 -10 -5 0 -10 5 -10 10 0 6 5 10 10 10 6 0 10 -4 10
-10z m-300 -49 c21 -41 -15 -65 -61 -41 -23 13 -24 24 -3 44 21 22 51 20 64
-3z m-171 -21 c11 0 17 -9 19 -26 1 -15 8 -34 15 -42 18 -23 113 -62 150 -62
51 0 77 -11 77 -30 0 -16 -4 -17 -31 -10 -18 5 -35 7 -40 5 -4 -3 -11 0 -15 6
-9 15 -97 5 -148 -16 -36 -15 -36 -15 -46 10 -6 15 -10 46 -10 71 0 37 -3 44
-20 44 -10 0 -24 9 -30 20 -9 17 -7 22 12 30 13 5 29 7 36 4 8 -2 21 -4 31 -4z
m1136 -224 c-18 -38 -69 -76 -103 -76 -35 0 -35 19 1 34 19 7 49 32 67 55 40
49 61 41 35 -13z m-905 -51 c58 -23 77 -34 58 -35 -15 0 -30 5 -33 10 -4 6
-16 9 -28 8 -25 -2 -114 10 -137 20 -8 3 -22 7 -30 7 -40 5 -42 8 -5 15 70 13
88 10 175 -25z m-230 15 c-13 -8 -13 -10 0 -10 10 0 11 -3 3 -11 -6 -6 -16 -8
-22 -5 -15 9 -2 36 18 36 14 0 14 -2 1 -10z m-62 -25 c0 -33 -32 -30 -36 3 -3
16 2 22 16 22 14 0 20 -7 20 -25z m1272 -49 c-17 -53 -67 -109 -113 -128 -43
-17 -114 -23 -154 -12 -24 7 -16 13 127 88 36 19 83 54 105 78 32 34 41 39 43
25 2 -9 -2 -33 -8 -51z m-777 -10 c3 -8 -2 -16 -14 -19 -14 -4 -19 0 -19 14 0
22 25 26 33 5z m-315 -181 c12 -12 -36 -4 -54 10 -17 13 -16 14 15 5 18 -5 36
-12 39 -15z m175 -295 c67 -27 113 -67 156 -137 17 -28 31 -52 31 -55 0 -3
-19 -13 -42 -23 -43 -19 -211 -128 -388 -252 -52 -37 -85 -56 -73 -42 32 36
54 143 73 366 10 121 19 149 53 163 35 15 127 5 190 -20z m357 -149 c-11 -21
-30 -37 -30 -25 0 8 30 44 37 44 2 0 -1 -9 -7 -19z m-75 -49 c-6 -5 -30 -17
-55 -26 -74 -29 -232 -131 -370 -241 -198 -157 -210 -164 -210 -130 0 22 31
52 140 131 207 152 290 204 400 250 54 23 113 32 95 16z m40 -42 c3 -5 -1 -10
-10 -10 -47 0 -176 -91 -395 -280 -80 -69 -158 -135 -173 -147 -68 -53 -167
-468 -197 -823 -7 -85 -20 -159 -33 -200 l-22 -65 -5 60 c-3 41 -7 54 -13 41
-4 -11 -13 -16 -22 -12 -13 5 -15 -15 -16 -132 -1 -75 -4 -126 -6 -112 -3 13
-12 30 -21 36 -15 11 -17 40 -15 261 1 214 5 269 27 403 14 85 39 202 56 260
33 110 150 364 157 342 3 -6 9 -10 14 -7 8 6 -5 -37 -34 -105 -24 -57 -30 -83
-19 -76 6 4 14 0 19 -8 5 -10 19 15 42 79 19 52 37 92 41 90 4 -3 48 30 98 73
145 124 219 182 317 247 123 83 194 111 210 85z m11 -39 c-10 -11 -23 -39 -31
-64 -11 -38 -94 -162 -102 -153 -5 5 48 177 60 197 11 18 48 37 76 38 11 1 10
-3 -3 -18z m-163 -93 c-3 -13 -18 -67 -34 -122 -16 -54 -29 -106 -29 -116 0
-17 -98 -165 -105 -158 -5 4 47 209 74 298 15 47 30 73 53 92 40 34 48 35 41
6z m-606 -125 c-19 -37 -41 -148 -34 -167 3 -8 -3 -25 -13 -38 l-19 -23 -1 30
c0 17 7 54 14 83 8 30 12 60 9 68 -3 8 2 16 10 20 8 3 21 19 27 35 7 16 15 28
17 25 2 -2 -2 -17 -10 -33z m414 -104 c-79 -287 -111 -380 -156 -456 l-46 -78
6 48 c7 51 78 318 121 452 20 61 34 88 61 113 20 17 38 31 39 29 2 -2 -9 -50
-25 -108z m-471 84 c0 -5 -9 -19 -20 -33 -16 -20 -19 -21 -14 -5 11 31 34 58
34 38z m-21 -85 c-19 -23 -46 -69 -61 -102 l-28 -61 6 45 c5 33 20 62 57 108
27 35 52 61 54 58 3 -3 -10 -24 -28 -48z m-47 -164 c-32 -71 -63 -140 -70
-154 -8 -19 -11 -21 -11 -7 -1 10 24 75 55 145 68 154 76 170 81 156 2 -6 -23
-69 -55 -140z m374 20 c-57 -199 -85 -313 -110 -449 -18 -99 -32 -147 -59
-200 -32 -61 -36 -66 -36 -40 -1 49 55 371 83 483 40 156 82 262 118 299 17
18 33 31 35 29 2 -2 -12 -57 -31 -122z m-280 -1 c-96 -195 -152 -428 -172
-708 -5 -79 -9 -95 -16 -75 -21 55 19 353 72 541 39 138 130 329 156 329 2 0
-16 -39 -40 -87z m-77 -68 c-38 -85 -92 -264 -109 -362 -6 -40 -14 -73 -17
-73 -14 0 8 146 36 245 35 118 114 303 119 276 1 -9 -11 -48 -29 -86z m-67
-2010 c-3 -29 -8 -35 -28 -35 -21 0 -28 -8 -26 -31 0 -3 -12 -10 -27 -16 l-28
-10 31 94 31 95 25 -31 c20 -23 25 -39 22 -66z m549 -182 c13 -16 12 -17 -3
-4 -10 7 -18 15 -18 17 0 8 8 3 21 -13z m-1553 -230 c2 -9 -7 -13 -27 -13 -31
0 -42 14 -18 23 19 8 40 3 45 -10z m247 -73 c10 -70 -1 -116 -44 -201 -47 -90
-68 -106 -149 -111 l-63 -4 48 48 c26 27 50 43 52 37 6 -20 79 147 86 200 12
91 59 111 70 31z m133 -71 c-5 -49 -9 -54 -108 -135 -33 -28 -34 -28 -18 -4
34 49 57 102 63 148 12 85 13 87 42 60 21 -20 24 -30 21 -69z m3497 -199 c3
-5 1 -10 -4 -10 -6 0 -11 5 -11 10 0 6 2 10 4 10 3 0 8 -4 11 -10z m30 -30 c3
-5 2 -10 -4 -10 -5 0 -13 5 -16 10 -3 6 -2 10 4 10 5 0 13 -4 16 -10z m29 -41
c-6 -11 -24 -2 -24 11 0 5 7 7 15 4 8 -4 12 -10 9 -15z m-1588 -46 c-7 -7 -26
7 -26 19 0 6 6 6 15 -2 9 -7 13 -15 11 -17z m1614 17 c0 -5 -2 -10 -4 -10 -3
0 -8 5 -11 10 -3 6 -1 10 4 10 6 0 11 -4 11 -10z m20 -41 c0 -6 -4 -7 -10 -4
-5 3 -10 11 -10 16 0 6 5 7 10 4 6 -3 10 -11 10 -16z m20 -38 c0 -6 -4 -13
-10 -16 -5 -3 -10 1 -10 9 0 9 5 16 10 16 6 0 10 -4 10 -9z m15 -51 c3 -5 1
-10 -4 -10 -6 0 -11 5 -11 10 0 6 2 10 4 10 3 0 8 -4 11 -10z m10 -39 c3 -5 1
-12 -5 -16 -5 -3 -10 1 -10 9 0 18 6 21 15 7z m-2231 -60 c44 -29 146 -38 180
-16 14 10 26 15 26 12 0 -3 3 -12 6 -20 9 -23 -74 -75 -132 -83 -27 -3 -52
-11 -55 -16 -4 -7 -24 -5 -55 6 -27 9 -68 17 -92 18 -53 2 -55 16 -2 20 38 3
39 3 15 15 -14 6 -22 7 -19 2 8 -14 -34 -5 -49 10 -10 11 -8 12 9 7 15 -4 24
-2 27 9 4 8 13 12 21 9 9 -3 29 5 47 20 37 31 36 31 73 7z m2236 -2 c0 -5 -4
-9 -10 -9 -5 0 -10 7 -10 16 0 8 5 12 10 9 6 -3 10 -10 10 -16z m-1627 -49
c10 -16 73 -99 141 -185 77 -98 138 -186 164 -238 39 -79 73 -185 71 -223 0
-11 -9 13 -20 51 -28 104 -95 228 -179 335 -121 154 -210 274 -210 282 0 17
17 6 33 -22z m1627 5 c0 -8 -4 -15 -10 -15 -5 0 -10 7 -10 15 0 8 5 15 10 15
6 0 10 -7 10 -15z m0 -55 c0 -5 -7 -10 -15 -10 -8 0 -15 5 -15 10 0 6 7 10 15
10 8 0 15 -4 15 -10z m-1935 -31 c20 -18 40 -41 46 -53 6 -11 -7 -2 -28 20
-21 23 -47 47 -58 53 -11 6 -15 11 -8 11 7 0 28 -14 48 -31z m-67 7 c61 -32
124 -132 148 -235 15 -63 3 -56 -15 9 -23 82 -98 191 -157 227 -27 17 -9 16
24 -1z m531 -60 c64 -73 99 -87 43 -17 -18 22 -28 42 -23 45 15 10 139 -158
191 -257 55 -104 72 -167 46 -167 -9 0 -16 -8 -17 -17 -1 -10 -6 -2 -13 17
-33 98 -100 208 -209 345 -44 55 -85 107 -91 115 -15 21 43 -29 73 -64z m-532
12 c50 -47 93 -130 112 -217 18 -84 12 -92 -9 -12 -28 107 -96 216 -155 253
-21 13 -25 18 -12 18 9 0 38 -19 64 -42z m-89 18 c66 -35 138 -149 161 -256
18 -79 67 -508 57 -485 -3 6 -17 102 -31 215 -35 279 -59 361 -133 458 -28 37
-89 72 -112 65 -13 -4 -13 -3 0 6 20 14 26 14 58 -3z m2082 4 c0 -5 -4 -10
-10 -10 -5 0 -10 5 -10 10 0 6 5 10 10 10 6 0 10 -4 10 -10z m-10 -51 c0 -5
-4 -9 -10 -9 -5 0 -10 7 -10 16 0 8 5 12 10 9 6 -3 10 -10 10 -16z m-1830 -50
c12 -23 20 -43 18 -45 -3 -2 -14 17 -26 41 -27 56 -20 60 8 4z m1790 -39 c0
-5 -5 -10 -11 -10 -5 0 -7 5 -4 10 3 6 8 10 11 10 2 0 4 -4 4 -10z m-20 -40
c0 -5 -4 -10 -10 -10 -5 0 -10 5 -10 10 0 6 5 10 10 10 6 0 10 -4 10 -10z
m-2269 -57 c20 -21 45 -55 57 -75 17 -31 18 -37 5 -42 -34 -13 -54 -5 -80 37
-16 23 -34 47 -42 53 -17 13 -7 64 12 64 7 0 29 -17 48 -37z m9 17 c6 -11 8
-20 6 -20 -3 0 -10 9 -16 20 -6 11 -8 20 -6 20 3 0 10 -9 16 -20z m2230 0 c0
-5 -5 -10 -11 -10 -5 0 -7 5 -4 10 3 6 8 10 11 10 2 0 4 -4 4 -10z m-2162 -25
c-3 -3 -9 2 -12 12 -6 14 -5 15 5 6 7 -7 10 -15 7 -18z m2132 -15 c0 -5 -5
-10 -11 -10 -5 0 -7 5 -4 10 3 6 8 10 11 10 2 0 4 -4 4 -10z m-70 -50 c0 -5
-2 -10 -4 -10 -3 0 -8 5 -11 10 -3 6 -1 10 4 10 6 0 11 -4 11 -10z m-30 -20
c0 -5 -5 -10 -11 -10 -5 0 -7 5 -4 10 3 6 8 10 11 10 2 0 4 -4 4 -10z m-1452
-42 c-2 -6 -10 -14 -16 -16 -7 -2 -10 2 -6 12 7 18 28 22 22 4z m348 -41 c-17
-12 -17 -16 -1 -77 13 -51 14 -72 6 -101 -14 -45 -25 -55 -74 -64 -36 -7 -39
-5 -117 70 -77 75 -87 95 -52 95 9 0 44 12 77 26 69 30 156 62 169 63 6 1 2
-5 -8 -12z m-330 -18 c3 -6 19 -9 35 -7 15 3 26 1 24 -3 -7 -10 -55 -18 -55
-8 0 4 -12 12 -27 17 -25 9 -25 11 -6 11 12 1 25 -4 29 -10z m-189 -461 c-2
-24 -4 -5 -4 42 0 47 2 66 4 43 2 -24 2 -62 0 -85z m-394 -40 c-15 -7 -30 -8
-44 -2 -17 8 -13 10 23 11 37 1 40 0 21 -9z m19 -48 c9 0 20 -5 23 -10 10 -17
-44 0 -92 27 -58 34 -55 40 4 8 27 -14 55 -25 65 -25z m73 -70 c43 -11 92 -20
110 -20 17 0 35 -3 38 -6 11 -11 -67 -103 -97 -113 -67 -25 -125 -7 -156 47
-29 48 -69 149 -63 156 3 3 25 -6 48 -19 23 -14 77 -34 120 -45z m292 48 c-3
-8 -6 -5 -6 6 -1 11 2 17 5 13 3 -3 4 -12 1 -19z"/>
<path d="M4843 5626 c-41 -152 -48 -196 -35 -196 6 0 17 -2 25 -6 11 -4 16 7
21 48 4 29 20 101 37 160 16 60 29 110 29 112 0 2 -10 4 -23 4 -20 0 -25 -12
-54 -122z"/>
<path d="M4782 5480 c0 -14 2 -19 5 -12 2 6 2 18 0 25 -3 6 -5 1 -5 -13z"/>
<path d="M4772 5410 c0 -14 2 -19 5 -12 2 6 2 18 0 25 -3 6 -5 1 -5 -13z"/>
<path d="M4830 5382 c0 -7 -9 -12 -19 -12 -25 0 -28 -12 -41 -150 -5 -63 -12
-141 -15 -172 -5 -53 -5 -56 15 -51 12 3 20 0 20 -8 0 -7 2 -10 5 -8 2 3 9 68
15 144 6 77 15 166 21 199 6 32 8 61 5 64 -3 3 -6 0 -6 -6z"/>
<path d="M4762 5350 c0 -14 2 -19 5 -12 2 6 2 18 0 25 -3 6 -5 1 -5 -13z"/>
<path d="M4752 5285 c0 -16 2 -22 5 -12 2 9 2 23 0 30 -3 6 -5 -1 -5 -18z"/>
<path d="M4743 5170 c0 -25 2 -35 4 -22 2 12 2 32 0 45 -2 12 -4 2 -4 -23z"/>
<path d="M4733 5005 c0 -44 2 -61 4 -37 2 23 2 59 0 80 -2 20 -4 1 -4 -43z"/>
<path d="M7435 7609 c4 -9 -21 -55 -60 -115 -105 -156 -167 -267 -169 -298 -2
-53 22 -39 60 36 44 88 114 206 160 269 37 51 42 75 19 105 -10 13 -13 14 -10
3z"/>
<path d="M7773 7476 c4 -6 7 -13 7 -16 0 -4 -53 -51 -117 -106 -65 -54 -154
-133 -198 -175 -45 -42 -89 -80 -99 -86 -24 -13 -14 -46 19 -61 14 -7 25 -8
25 -2 0 19 141 168 264 279 69 63 126 120 126 127 0 6 -8 20 -17 31 -10 10
-15 14 -10 9z"/>
<path d="M6732 7361 c37 -40 51 -85 63 -193 5 -45 14 -66 43 -102 41 -50 57
-55 21 -6 -17 23 -25 51 -30 108 -8 92 -35 158 -81 201 -47 44 -57 39 -16 -8z"/>
<path d="M6610 7367 c0 -4 14 -38 31 -75 18 -37 35 -83 39 -102 l8 -35 1 43
c1 34 -8 57 -39 109 -22 37 -40 64 -40 60z"/>
<path d="M7339 7193 l-34 -38 38 34 c34 33 42 41 34 41 -2 0 -19 -17 -38 -37z"/>
<path d="M7941 7182 c18 -31 7 -39 -129 -93 -59 -23 -143 -61 -188 -84 -45
-24 -106 -48 -137 -55 -32 -6 -57 -16 -57 -21 0 -17 48 -59 67 -58 17 0 17 1
0 7 -24 10 149 105 313 172 164 67 189 91 139 136 -22 19 -22 19 -8 -4z"/>
<path d="M7014 7128 l-29 -33 33 29 c30 28 37 36 29 36 -2 0 -16 -15 -33 -32z"/>
<path d="M6673 7115 c0 -22 2 -30 4 -17 2 12 2 30 0 40 -3 9 -5 -1 -4 -23z"/>
<path d="M7787 3263 c18 -2 50 -2 70 0 21 2 7 4 -32 4 -38 0 -55 -2 -38 -4z"/>
<path d="M6880 3072 c-14 -15 -41 -40 -60 -55 -26 -22 -23 -20 14 5 27 18 55
43 64 56 19 29 13 27 -18 -6z"/>
<path d="M3513 3050 c0 -25 2 -35 4 -22 2 12 2 32 0 45 -2 12 -4 2 -4 -23z"/>
</g>
</svg>
